<svg id="logo" xmlns="http://www.w3.org/2000/svg" viewBox="0 0 748 901"><defs><style>.cls-1{fill:#ffdeb4;stroke:#fc9;}.cls-1,.cls-2,.cls-6,.cls-8{stroke-miterlimit:10;}.cls-1,.cls-2,.cls-8{stroke-width:25px;}.cls-2{fill:none;stroke:#350001;}.cls-3{fill:#9f0031;}.cls-4{fill:#f15a24;}.cls-5{fill:#c1272d;}.cls-6{fill:#29abe2;stroke:#0071bc;stroke-width:20px;}.cls-7{fill:#ccc;}.cls-8{fill:#f7931e;stroke:#ffd20a;}.cls-9{fill:#fcee21;}</style></defs><g id="invoice"><rect class="cls-1" x="86.5" y="12.5" width="575" height="675" rx="80"/><line class="cls-2" x1="174" y1="162.5" x2="274" y2="162.5"/><line class="cls-2" x1="308.5" y1="163.5" x2="571" y2="163.5"/><line class="cls-2" x1="174" y1="237.8" x2="374" y2="237.8"/><line class="cls-2" x1="411.5" y1="237.8" x2="574" y2="237.8"/><path class="cls-3" d="M194.12,506.91,208.4,488.8C224.17,500.39,243,510,265.52,510c27.38,0,41.32-12.92,41.32-32.89,0-51.89-103.37-40.65-103.37-102.92,0-32.16,27.19-54,66.13-54,29.28,0,47.07,10.71,62.15,24.52L315.51,360.2c-13.78-11.45-25-18.19-45-18.19-22.69,0-37.23,12.33-37.23,30.8,0,46.57,103.37,33.69,103.37,102.45,0,34.12-28.11,56.61-71.12,56.61C239.12,531.87,211.64,521,194.12,506.91Zm63-218.17h22.26v41.12H257.15Zm0,233.85h22.26v40.65H257.15Z" transform="translate(-1 0)"/></g><g id="calculator"><rect class="cls-4" x="358" y="410" width="380" height="480" rx="70"/><path class="cls-5" d="M669,420a60.23,60.23,0,0,1,60,60V820a60.23,60.23,0,0,1-60,60H429a60.23,60.23,0,0,1-60-60V480a60.23,60.23,0,0,1,60-60H669m0-20H429a80.24,80.24,0,0,0-80,80V820a80.24,80.24,0,0,0,80,80H669a80.24,80.24,0,0,0,80-80V480a80.24,80.24,0,0,0-80-80Z" transform="translate(-1 0)"/><path class="cls-6" d="M669,463c38.09,1.25,29.21,44.5,30,70a30.09,30.09,0,0,1-30,30H429c-38.09-1.25-29.21-44.5-30-70a30.09,30.09,0,0,1,30-30H669" transform="translate(-1 0)"/><rect class="cls-7" x="405.5" y="607.5" width="60" height="60" rx="4.5"/><path d="M459,615v45H414V615h45m3-15H411a12,12,0,0,0-12,12v51a12,12,0,0,0,12,12h51a12,12,0,0,0,12-12V612a12,12,0,0,0-12-12Z" transform="translate(-1 0)"/><rect class="cls-7" x="405.5" y="694.5" width="60" height="60" rx="4.5"/><path d="M459,702v45H414V702h45m3-15H411a12,12,0,0,0-12,12v51a12,12,0,0,0,12,12h51a12,12,0,0,0,12-12V699a12,12,0,0,0-12-12Z" transform="translate(-1 0)"/><rect class="cls-7" x="518.5" y="695.5" width="60" height="60" rx="4.5"/><path d="M572,703v45H527V703h45m3-15H524a12,12,0,0,0-12,12v51a12,12,0,0,0,12,12h51a12,12,0,0,0,12-12V700a12,12,0,0,0-12-12Z" transform="translate(-1 0)"/><rect class="cls-7" x="517.5" y="782.5" width="60" height="60" rx="4.5"/><path d="M571,790v45H526V790h45m3-15H523a12,12,0,0,0-12,12v51a12,12,0,0,0,12,12h51a12,12,0,0,0,12-12V787a12,12,0,0,0-12-12Z" transform="translate(-1 0)"/><rect class="cls-7" x="405.5" y="782.5" width="60" height="60" rx="4.5"/><path d="M459,790v45H414V790h45m3-15H411a12,12,0,0,0-12,12v51a12,12,0,0,0,12,12h51a12,12,0,0,0,12-12V787a12,12,0,0,0-12-12Z" transform="translate(-1 0)"/><rect class="cls-7" x="518.5" y="607.5" width="60" height="60" rx="4.5"/><path d="M572,615v45H527V615h45m3-15H524a12,12,0,0,0-12,12v51a12,12,0,0,0,12,12h51a12,12,0,0,0,12-12V612a12,12,0,0,0-12-12Z" transform="translate(-1 0)"/><rect class="cls-7" x="630.5" y="607.5" width="60" height="60" rx="4.5"/><path d="M684,615v45H639V615h45m3-15H636a12,12,0,0,0-12,12v51a12,12,0,0,0,12,12h51a12,12,0,0,0,12-12V612a12,12,0,0,0-12-12Z" transform="translate(-1 0)"/><path class="cls-7" d="M635,842.5a4.56,4.56,0,0,1-4.5-4.5l1-139a4.57,4.57,0,0,1,4.5-4.55h51a4.56,4.56,0,0,1,4.5,4.5l-1,139a4.57,4.57,0,0,1-4.5,4.55Z" transform="translate(-1 0)"/><path d="M684,702l-1,133H638l1-133h45m3-15H636a12,12,0,0,0-12,12l-1,139a12,12,0,0,0,12,12h51a12,12,0,0,0,12-12l1-139a12,12,0,0,0-12-12Z" transform="translate(-1 0)"/></g><g id="coin"><circle class="cls-8" cx="162.5" cy="738.5" r="150"/><path class="cls-9" d="M106.66,763.85C127.41,775,145.37,781.59,166,781.59c16,0,24.31-4.84,24.31-13,0-23.82-96.1-19.61-96.1-72.08,0-28.85,28.43-47.51,72.5-47.51,30.18,0,50.4,10,66.65,24.21l-24,24c-15.53-9.44-27.63-14.4-45.81-14.4-14.7,0-22.83,4.8-22.83,13.09,0,20.25,96.11,17.76,96.11,69.71,0,28.18-27.62,49.79-77.92,49.79-23.45,0-54-8.61-73.44-23.13Zm41.76-151.08h32.12v49.38H148.42Zm32.12,185.56v58.15H148.42V798.33Z" transform="translate(-1 0)"/></g></svg>